<?xml version="1.0" encoding="UTF-8" standalone="no"?>
<svg
   viewBox="0 0 580 580"
   version="1.1"
   id="svg4"
   sodipodi:docname="microchip-solid.svg"
   width="580"
   height="580"
   inkscape:version="1.1.2 (0a00cf5339, 2022-02-04)"
   xmlns:inkscape="http://www.inkscape.org/namespaces/inkscape"
   xmlns:sodipodi="http://sodipodi.sourceforge.net/DTD/sodipodi-0.dtd"
   xmlns="http://www.w3.org/2000/svg"
   xmlns:svg="http://www.w3.org/2000/svg">
  <defs
     id="defs8" />
  <sodipodi:namedview
     id="namedview6"
     pagecolor="#ffffff"
     bordercolor="#666666"
     borderopacity="1.0"
     inkscape:pageshadow="2"
     inkscape:pageopacity="0.0"
     inkscape:pagecheckerboard="0"
     showgrid="false"
     width="511px"
     inkscape:zoom="0.76367188"
     inkscape:cx="348.97187"
     inkscape:cy="355.51918"
     inkscape:window-width="1850"
     inkscape:window-height="1016"
     inkscape:window-x="0"
     inkscape:window-y="0"
     inkscape:window-maximized="1"
     inkscape:current-layer="svg4" />
  <!--!Font Awesome Free 6.5.1 by @fontawesome - https://fontawesome.com License - https://fontawesome.com/license/free Copyright 2024 Fonticons, Inc.-->
  <path
     d="m 211.6266,57.468031 c 0,-13.3 -10.7,-24 -24,-24 -13.3,0 -24,10.7 -24,24 v 40 c -35.3,0 -64.000002,28.699999 -64.000002,63.999999 h -40 c -13.3,0 -24,10.7 -24,24 0,13.3 10.7,24 24,24 h 40 v 56 h -40 c -13.3,0 -24,10.7 -24,24 0,13.3 10.7,24 24,24 h 40 v 56 h -40 c -13.3,0 -24,10.7 -24,24 0,13.3 10.7,24 24,24 h 40 c 0,35.3 28.700002,64 64.000002,64 v 40 c 0,13.3 10.7,24 24,24 13.3,0 24,-10.7 24,-24 v -40 h 56 v 40 c 0,13.3 10.7,24 24,24 13.3,0 24,-10.7 24,-24 v -40 h 56 v 40 c 0,13.3 10.7,24 24,24 13.3,0 24,-10.7 24,-24 v -40 c 35.3,0 64,-28.7 64,-64 h 40 c 13.3,0 24,-10.7 24,-24 0,-13.3 -10.7,-24 -24,-24 h -40 v -56 h 40 c 13.3,0 24,-10.7 24,-24 0,-13.3 -10.7,-24 -24,-24 h -40 v -56 h 40 c 13.3,0 24,-10.7 24,-24 0,-13.3 -10.7,-24 -24,-24 h -40 c 0,-35.3 -28.7,-63.999999 -64,-63.999999 v -40 c 0,-13.3 -10.7,-24 -24,-24 -13.3,0 -24,10.7 -24,24 v 40 h -56 v -40 c 0,-13.3 -10.7,-24 -24,-24 -13.3,0 -24,10.7 -24,24 v 40 h -56 z m -16,103.999999 h 192 c 17.7,0 32,14.3 32,32 v 192 c 0,17.7 -14.3,32 -32,32 h -192 c -17.7,0 -32,-14.3 -32,-32 v -192 c 0,-17.7 14.3,-32 32,-32 z m 192,32 h -192 v 192 h 192 z"
     id="path2" />
</svg>
